<?xml version="1.0" standalone="no"?>
<!DOCTYPE svg PUBLIC "-//W3C//DTD SVG 20010904//EN"
 "http://www.w3.org/TR/2001/REC-SVG-20010904/DTD/svg10.dtd">
<svg version="1.0" xmlns="http://www.w3.org/2000/svg"
 width="370.000000pt" height="370.000000pt" viewBox="0 0 370.000000 370.000000"
 preserveAspectRatio="xMidYMid meet">
<metadata>
Created by potrace 1.14, written by Peter Selinger 2001-2017
</metadata>
<g transform="translate(0.000000,370.000000) scale(0.100000,-0.100000)"
fill="#000000" stroke="none">
<path d="M2095 2462 c-1 -2 8 -14 20 -26 l24 -24 0 -462 0 -463 -28 -26 -28
-26 128 0 128 0 -28 22 -29 23 0 160 c0 116 3 160 11 161 61 7 70 4 127 -49
33 -29 87 -95 121 -145 114 -171 167 -227 259 -276 95 -50 269 -71 375 -45
l50 12 -61 -5 c-107 -9 -213 27 -284 98 -33 33 -126 167 -137 197 -4 9 -30 49
-59 87 -48 63 -81 93 -138 123 -18 9 -18 10 4 17 12 4 29 8 36 9 24 4 100 62
128 99 46 60 65 131 62 227 -5 122 -44 200 -131 260 -66 46 -111 53 -338 54
-115 1 -210 0 -212 -2z m385 -30 c101 -42 160 -195 137 -357 -15 -109 -75
-203 -151 -239 -22 -10 -61 -16 -109 -16 l-75 0 0 308 c0 169 2 310 4 313 6
10 167 3 194 -9z"/>
<path d="M1112 2444 c-117 -26 -191 -97 -226 -214 -54 -181 39 -378 197 -421
l40 -11 -32 -19 c-17 -10 -34 -19 -37 -19 -20 0 -154 -174 -154 -199 0 -6 -4
-11 -10 -11 -5 0 -10 -5 -10 -11 0 -16 -74 -121 -116 -162 -91 -90 -234 -119
-369 -72 -13 4 -11 1 5 -9 14 -8 48 -18 75 -22 194 -29 376 18 484 126 26 26
84 101 129 167 117 173 206 247 271 225 7 -2 11 -53 11 -156 0 -159 -9 -196
-47 -196 -9 0 -13 -3 -10 -6 9 -10 248 -11 254 -1 2 4 -2 7 -10 7 -8 0 -21 8
-30 18 -15 17 -17 65 -17 478 0 400 2 462 16 482 8 12 22 22 31 22 9 0 13 3
10 6 -11 11 -406 10 -455 -2z m251 -13 c4 0 7 -141 7 -312 l0 -311 -87 4 c-73
3 -94 8 -124 28 -125 84 -169 310 -93 476 20 45 80 102 117 112 26 7 149 9
180 3z"/>
<path d="M1775 2066 c-29 -29 -26 -62 9 -92 l24 -22 -23 -10 c-56 -25 -76
-103 -41 -157 19 -30 71 -58 94 -52 12 3 10 5 -6 6 -14 1 -30 13 -42 34 -32
52 -24 123 19 166 19 19 19 20 0 37 -27 24 -25 78 3 98 19 14 20 16 5 16 -10
0 -29 -11 -42 -24z"/>
<path d="M1980 1942 c0 -8 -21 -12 -58 -12 -47 0 -63 -4 -78 -21 -19 -21 -19
-21 9 -8 23 10 30 10 49 -7 12 -10 18 -13 14 -6 -5 8 0 12 17 12 25 0 65 35
54 47 -4 3 -7 1 -7 -5z"/>
<path d="M3374 1399 c-10 -12 -37 -35 -58 -50 -21 -16 -34 -29 -28 -29 11 0
122 99 111 100 -3 0 -14 -10 -25 -21z"/>
<path d="M280 1376 c19 -21 49 -44 65 -52 17 -8 21 -9 11 -2 -11 7 -40 31 -65
53 l-46 39 35 -38z"/>
<path d="M3240 1310 c-8 -5 -10 -10 -5 -10 6 0 17 5 25 10 8 5 11 10 5 10 -5
0 -17 -5 -25 -10z"/>
</g>
</svg>
